<?xml version="1.0" encoding="UTF-8"?>
<svg width="282px" height="163px" viewBox="0 0 282 163" version="1.1" xmlns="http://www.w3.org/2000/svg" xmlns:xlink="http://www.w3.org/1999/xlink">
    <!-- Generator: Sketch 53.2 (72643) - https://sketchapp.com -->
    <title>logo conf</title>
    <desc>Created with Sketch.</desc>
    <g id="Page-1" stroke="none" stroke-width="1" fill="none" fill-rule="evenodd">
        <g id="/" transform="translate(-142.000000, -362.000000)">
            <g id="logo-conf" transform="translate(142.000000, 362.000000)">
                <path d="M89.7381824,131.007697 C91.2130543,132.679179 92.9243378,134.059109 94.8672325,135.151193 C95.5452656,135.532928 96.2484999,135.882543 96.9817357,136.193861 C99.8210742,137.398365 103.01443,138 106.557003,138 C110.098376,138 113.280931,137.398365 116.105869,136.193861 C118.929606,134.990592 121.327323,133.261047 123.30022,131.007697 C124.799093,129.294213 126.031553,127.290411 127,125 L86,125 C86.9804478,127.290411 88.2261086,129.294213 89.7381824,131.007697" id="Fill-1" fill="#FF4119"></path>
                <path d="M84,112.037708 C84,116.3468 84.5355695,120.211201 85.6079119,123.63351 C85.8654666,124.452679 86.1482954,125.240643 86.4588054,126 L127.5773,126 C127.882996,125.240643 128.162214,124.452679 128.414955,123.63351 C129.471652,120.211201 130,116.3468 130,112.037708 L130,112 L84,112 L84,112.037708 Z" id="Fill-3" fill="#004AA4"></path>
                <path d="M128.416117,102.554642 C128.172998,101.839013 127.902198,101.149236 127.60853,100.482961 C126.633647,98.2726204 125.385557,96.3360752 123.86787,94.6756757 C121.88922,92.5158637 119.484511,90.8636898 116.652538,89.7179788 C113.819362,88.573443 110.627525,88 107.075824,88 C103.521716,88 100.320251,88.573443 97.4726321,89.7179788 C96.8455782,89.9706228 96.2462062,90.2573443 95.6588697,90.559342 C93.5851387,91.626322 91.7629513,92.9917744 90.207954,94.6756757 C88.6746206,96.3360752 87.4156986,98.2726204 86.4275772,100.482961 C86.1302983,101.149236 85.8570905,101.839013 85.607954,102.554642 C84.5379906,105.636898 84.0036107,109.119859 84,113 L130,113 C129.997593,109.119859 129.469231,105.636898 128.416117,102.554642" id="Fill-5" fill="#FFDE19"></path>
                <polygon id="Clip-22" points="0 163 282 163 282 0 0 0"></polygon>   
                <path d="M135.62115,126.734342 C134.185843,131.083258 132.120516,134.7655 129.431091,137.776288 C126.740482,140.791855 123.468407,143.102515 119.614868,144.713047 C115.760144,146.32358 111.41751,147.127652 106.583414,147.127652 C101.749318,147.127652 97.3936571,146.32358 93.5176167,144.713047 C92.516928,144.296077 91.5576879,143.830122 90.6339753,143.319961 C87.9800778,141.857578 85.6459269,140.011678 83.6338913,137.776288 C80.9195972,134.7655 78.8341382,131.083258 77.3739617,126.734342 C75.9149694,122.386621 75.1854732,117.477364 75.1854732,112.000597 C75.1854732,106.52622 75.9149694,101.615768 77.3739617,97.2668525 C78.8341382,92.9191313 80.9195972,89.2261371 83.6338913,86.1902592 C85.7489564,83.8234454 88.2275854,81.9034707 91.0508302,80.4028557 C91.8490127,79.9787169 92.6637746,79.574889 93.5176167,79.2200462 C97.3936571,77.6107083 101.749318,76.8042472 106.583414,76.8042472 C111.41751,76.8042472 115.760144,77.6107083 119.614868,79.2200462 C123.468407,80.8305788 126.740482,83.1531866 129.431091,86.1902592 C132.120516,89.2261371 134.185843,92.9191313 135.62115,97.2668525 C137.057642,101.615768 137.77648,106.52622 137.77648,112.000597 C137.77648,117.477364 137.057642,122.386621 135.62115,126.734342 L135.62115,126.734342 Z M282,68.1960222 C282,64.8315861 279.296364,62.1039556 275.962709,62.1039556 L235.706601,62.1039556 L230.530257,62.1039556 L219.615053,62.1039556 L219.598473,62.1039556 L219.493075,62.1039556 L219.493075,62.1206822 L219.493075,122.767749 C219.493075,124.102292 219.528603,125.539585 219.596105,127.080822 C219.600842,127.179987 219.610316,127.281541 219.615053,127.380706 L219.615053,131.348494 L183.629339,85.0934722 L168.052938,65.072927 C167.550818,64.4289529 167.094883,63.9116231 166.683949,63.5197428 C166.274199,63.130252 165.851423,62.8303679 165.419173,62.6224802 C164.985739,62.4145924 164.496645,62.2771954 163.948338,62.2078995 C163.401216,62.1397983 162.717906,62.1039556 161.896038,62.1039556 L152.251531,62.1039556 L152.251531,89.7960362 C149.901985,84.356307 146.768467,79.5963946 142.837951,75.5282466 C138.45979,70.9965329 133.193444,67.4421304 127.037728,64.8650393 C120.880828,62.2903377 114.061934,61 106.583414,61 C99.1037098,61 92.2741574,62.2771954 86.0959408,64.8303913 C83.3425665,65.9689949 80.7763033,67.3166809 78.3782031,68.8507491 C75.390348,70.759971 72.6665799,72.9678821 70.2258468,75.4935987 C65.8240007,80.0480128 62.4169221,85.4423413 59.999874,91.6765839 C57.5828259,97.9120214 56.3737097,104.686294 56.3737097,112.000597 C56.3737097,119.316095 57.5828259,126.091563 59.999874,132.324611 C61.5583431,136.346163 63.5360355,140.012873 65.9199247,143.335492 C64.4467215,144.226781 62.8977264,144.968725 61.2587286,145.541014 C59.5486759,146.138393 57.6775657,146.575674 55.6489506,146.851663 C53.6191512,147.127652 51.350134,147.267438 48.8430831,147.267438 C44.6461117,147.267438 40.7238857,146.472925 37.0764049,144.885092 C33.4277399,143.298455 30.258695,141.0093 27.5680858,138.018823 C24.8774766,135.028346 22.745832,131.347299 21.1719678,126.976878 C19.5992878,122.605262 18.8117635,117.614761 18.8117635,112.000597 C18.8117635,106.572816 19.5992878,101.68387 21.1719678,97.3361484 C22.745832,92.9884273 24.9343205,89.295433 27.7386174,86.2595551 C30.5429143,83.2224825 33.8967017,80.8891219 37.7952429,79.2546941 C41.6949682,77.6226559 45.9700999,76.8042472 50.6218221,76.8042472 L50.7059036,76.8042472 C54.7169482,76.810221 57.9937596,73.5915453 57.9937596,69.5437082 L57.9937596,61.4552025 L57.9937596,61.4313073 C57.746252,61.4002436 57.4857176,61.3894908 57.2358415,61.3620114 C56.5655577,61.290326 55.8858,61.2281986 55.1989367,61.1780188 C54.8543208,61.1529289 54.5144419,61.1218652 54.1650891,61.1015544 C53.9471876,61.0908015 53.718628,61.0931911 53.4995423,61.0824382 C52.5959618,61.0430113 51.6935656,61 50.7580105,61 C43.2321208,61 36.3587512,62.254495 30.1331648,64.7622902 C23.9087626,67.2700854 18.5607032,70.7778923 14.0925392,75.2857109 C9.62200684,79.7959191 6.15808438,85.1663524 3.69603487,91.400595 C1.23280112,97.6360325 0,104.502302 0,112.000597 C0,119.409286 1.10608669,126.240908 3.31826008,132.497851 C5.52924922,138.755988 8.7113209,144.137175 12.8609224,148.646188 C17.0105238,153.156396 22.0151516,156.676151 27.8771743,159.205451 C33.7356442,161.737142 40.3366369,163 47.6789683,163 C55.8881684,163 62.9225956,161.666651 68.783434,158.998758 C71.7014186,157.668994 74.3920278,156.047708 76.852893,154.136097 C79.6773221,156.103862 82.750443,157.788469 86.0959408,159.170803 C92.2741574,161.723999 99.1037098,163 106.583414,163 C114.061934,163 120.880828,161.723999 127.037728,159.170803 C133.193444,156.617607 138.45979,153.063205 142.837951,148.508791 C146.768467,144.420332 149.901985,139.649667 152.251531,134.207548 L152.251531,161.897239 L168.462688,161.897239 L168.462688,100.614562 C168.462688,99.4186101 168.428345,98.0948192 168.359658,96.6443841 C168.292156,95.1975332 168.190311,93.7363452 168.052938,92.2620149 L176.702678,103.380425 L219.76782,158.722769 C220.678506,159.918721 221.614061,160.747883 222.572117,161.20667 C223.473329,161.640366 224.605469,161.861396 225.950774,161.886486 C226.03604,161.888876 226.111832,161.897239 226.197097,161.897239 L228.78823,161.897239 L235.706601,161.897239 L238.153255,161.897239 L238.153255,121.248018 L267.709692,121.248018 C271.82495,121.248018 275.159789,117.883581 275.159789,113.7318 L275.159789,106.410329 L275.131367,106.410329 L238.153255,106.410329 L238.153255,76.8735432 L261.045934,76.8735432 L282,76.8735432 L282,68.1960222 Z" id="Fill-23" fill="#FFFFFF"></path>
            </g>
        </g>
    </g>
</svg>